<?xml version="1.0" encoding="UTF-8"?>
<svg viewBox="0 0 897.0196533203125 190" preserveAspectRatio="xMidYMid meet" class="css-u0rdyw undefined logo" id="cbfdgbbf">
  <defs id="SvgjsDefs23939"></defs>
  <g id="SvgjsG23940" fill="#ffffff" transform="matrix(1,0,0,1,0,0)"></g>
  <g id="SvgjsG23941" fill="#000000" transform="matrix(0.7933184483903595,0,0,0.7933184483903595,20.000283712785862,20.000136844133714)">
    <defs xmlns="http://www.w3.org/2000/svg"></defs>
    <g xmlns="http://www.w3.org/2000/svg">
      <path d="M17.914,148.907c-0.664-0.914-1.313-1.837-1.944-2.774C16.596,147.066,17.249,147.989,17.914,148.907z"></path>
      <path d="M22.657,154.94c1.844,2.153,3.788,4.249,5.861,6.251c6.914,6.805,15.159,12.525,24.004,16.851    c3.259,1.526,6.265,3.107,9.787,4.468c0.88,0.338,1.779,0.7,2.724,1.026c0.953,0.302,1.941,0.604,2.974,0.903    c1.027,0.321,2.122,0.549,3.267,0.786c1.146,0.23,2.336,0.493,3.614,0.624c-6.3-1.328-12.498-3.333-18.434-5.99    c-5.93-2.671-11.597-5.979-16.873-9.842c-10.548-7.727-19.57-17.648-26.16-28.989c-0.272-0.339-0.685-0.985-1.18-1.808    c-0.244-0.413-0.512-0.868-0.796-1.348c-0.256-0.496-0.527-1.018-0.803-1.551c-0.534-1.076-1.149-2.168-1.62-3.226    c-0.486-1.05-0.943-2.011-1.326-2.748c2.048,5.101,4.412,9.563,7.059,13.806c1.215,1.936,2.495,3.828,3.869,5.697    c-0.192-0.259-0.392-0.511-0.583-0.771c1.446,1.986,2.974,3.94,4.6,5.841C22.646,154.925,22.651,154.933,22.657,154.94z"></path>
      <path d="M18.039,149.078c-0.042-0.057-0.084-0.114-0.125-0.17C17.956,148.964,17.998,149.021,18.039,149.078z"></path>
      <path d="M1.335,106.042c-0.159-1.277-0.32-2.567-0.483-3.875c0.256,2.365,0.553,5.008,1.096,7.654    c-0.109-0.624-0.217-1.251-0.327-1.879C1.503,107.315,1.403,106.682,1.335,106.042z"></path>
      <path d="M85.812,185.575c6.652,0.673,13.628,0.472,20.461-0.609c6.837-1.077,13.524-2.987,19.741-5.449    c-11.45,4.503-23.602,6.506-35.49,6.171C88.933,185.663,87.365,185.688,85.812,185.575z"></path>
      <path d="M46.426,171.967c-0.086-0.055-0.173-0.11-0.259-0.165C46.254,171.857,46.339,171.913,46.426,171.967z"></path>
      <path d="M46.167,171.802c-0.853-0.542-1.688-1.1-2.514-1.667C44.475,170.705,45.317,171.257,46.167,171.802z"></path>
      <path d="M43.653,170.135c-0.899-0.623-1.797-1.248-2.66-1.897C41.861,168.886,42.752,169.516,43.653,170.135z"></path>
      <path d="M56.077,177.284c5.439,2.533,11.23,4.506,17.123,5.816c-9.688-2.21-18.805-6.109-26.774-11.133    C49.486,173.914,52.703,175.716,56.077,177.284z"></path>
      <path d="M177.002,107.094c0.098-1.58,0.296-3.238,0.346-4.027c0.594-5.071,0.77-9.401,0.745-13.745    c-0.11-0.783-0.425-2.25-0.55-3.918c-0.153-1.672-0.378-3.309-0.568-4.924c-0.289-1.601-0.538-3.186-0.854-4.74    c2.275,11.617,2.237,23.279,0.144,34.282C176.51,108.986,176.756,108.003,177.002,107.094z"></path>
      <path d="M0.887,83.482c0.848-6.9,2.653-13.626,4.37-18.107l-0.695,3.28c0.429-0.961,1.122-3.194,2.067-5.557    c0.225-0.594,0.454-1.2,0.682-1.802c0.255-0.591,0.508-1.179,0.753-1.747c0.5-1.131,0.92-2.203,1.363-3.025    c-0.303,0.771-0.595,1.602-0.947,2.436c-0.345,0.837-0.732,1.687-1.101,2.542c0.755-1.702,0.755-1.702,1.514-3.409    C7.581,61.359,6.148,65.463,4.954,69.8c-1.133,4.352-2.029,8.926-2.511,13.032c-0.14,1.024-0.189,2.024-0.28,2.978    c-0.067,0.954-0.183,1.864-0.192,2.724c-0.042,1.719-0.1,3.224-0.071,4.428c0.105,2.409,0.25,3.61,0.459,2.939    c0.411-1.333,0.403-8.188,1.837-16.767c0.767-4.276,1.868-8.966,3.362-13.561c1.483-4.599,3.427-9.058,5.44-12.992    c-0.197,0.429-0.394,0.859-0.592,1.292c-0.181,0.442-0.362,0.885-0.545,1.331c-0.369,0.889-0.741,1.787-1.116,2.691    c-0.339,0.92-0.68,1.846-1.024,2.78c-0.173,0.466-0.347,0.933-0.521,1.402c-0.153,0.476-0.308,0.954-0.461,1.434    c-1.32,3.807-2.307,7.816-3.167,11.857L5.013,78.42c-0.205,1.014-0.292,2.046-0.444,3.067c-0.318,2.041-0.434,4.097-0.611,6.129    c-0.199,4.074-0.239,8.098,0.13,11.946c-0.015-0.914-0.03-1.726-0.017-2.512c0.038-0.785,0.075-1.545,0.115-2.355    c0.048-0.809,0.039-1.667,0.115-2.65c0.07-0.983,0.134-2.091,0.19-3.402c0.391-6.608,1.572-13.15,3.408-19.481    c1.75-6.358,3.814-11.957,6.889-17.03c0.269-0.513,0.536-1.021,0.801-1.526c0.542-1.024,0.993-2.034,1.566-3.064    c0.653-1.13,1.278-1.976,1.784-2.751c0.521-0.767,0.963-1.441,1.469-2.095c0.969-1.336,1.977-2.729,3.682-5.082    c0.075-0.009-0.022,0.185-0.2,0.473c0.506-0.725,1.194-1.622,1.959-2.49c0.755-0.875,1.488-1.803,2.109-2.569    c0.146-0.007,0.288-0.011,0.623-0.251c8.65-9.197,19.295-16.692,31.291-21.417c0.892-0.347,1.781-0.694,2.667-1.039    c0.902-0.3,1.802-0.6,2.7-0.899l1.343-0.448l1.36-0.38c0.906-0.252,1.809-0.502,2.71-0.753c1.55-0.373,3.12-0.751,4.721-1.091    c0.806-0.141,1.619-0.283,2.437-0.426c0.819-0.141,1.642-0.3,2.484-0.378c1.674-0.201,3.134-0.625,3.921-0.729    c4.369-0.249,8.73-0.199,13.849,0.216c0.397,0.007,1.015,0.043,1.732,0.082c0.717,0.041,1.537,0.061,2.332,0.134    c0.932,0.21,1.927,0.418,2.971,0.621c6.369,0.988,12.527,2.754,18.386,5.103l-0.007-0.028c0.73,0.291,1.479,0.589,2.244,0.894    c0.748,0.346,1.513,0.699,2.29,1.058c1.571,0.684,3.11,1.559,4.7,2.383c0.798,0.407,1.554,0.904,2.338,1.354    c0.77,0.474,1.576,0.894,2.32,1.412c1.508,1.002,3.037,1.961,4.446,3.032c2.402,1.723,4.619,3.507,6.6,5.198    c0.046,0.042,0.094,0.081,0.14,0.122c0.018,0.016,0.028,0.025,0.042,0.038l1.457,1.322l1.394,1.391l1.395,1.392    c0.462,0.467,0.89,0.967,1.337,1.449c-0.216-0.35-0.208-0.491-0.2-0.63c-0.689-0.66-1.504-1.441-2.309-2.21    c1.343,1.222,2.515,2.327,3.477,3.229c0.371,0.474,0.776,0.94,1.16,1.449c0.385,0.508,0.78,1.031,1.186,1.566    c0.41,0.53,0.831,1.074,1.261,1.629c0.409,0.572,0.828,1.156,1.255,1.752c2.226,2.838,4.191,5.874,6.057,8.97    c0.864,1.588,1.817,3.131,2.586,4.774l1.213,2.436l1.092,2.497c0.314,0.533,0.192,0.022,0.231-0.068    c1.225,2.962,2.21,6.042,3.102,9.146c1.692,5.556,2.839,11.323,3.408,17.211c0.225,1.378,0.321,2.772,0.52,4.153    c-0.033,0.787-0.075,1.773-0.123,2.924c-0.001,1.103,0.057,2.206,0.01,3.311c-0.042,1.104-0.085,2.212-0.128,3.326    c-0.016,0.75-0.124,1.569-0.187,2.459c-0.084,0.888-0.128,1.846-0.256,2.856c-0.13,1.008-0.268,2.076-0.412,3.192    c-0.132,1.119-0.387,2.269-0.583,3.471c-0.883,4.79-2.297,10.17-4.312,15.482c-0.242,0.826-0.427,1.486-0.592,1.855    c-0.627,1.501-1.296,2.954-1.942,4.385c-0.723,1.394-1.386,2.788-2.127,4.108c-2.441,4.646-5.246,8.876-7.949,12.379    c-0.336,0.439-0.649,0.885-0.987,1.297c-0.34,0.41-0.673,0.812-0.998,1.206c-0.66,0.779-1.25,1.558-1.876,2.234    c-1.251,1.352-2.301,2.606-3.286,3.549c-1.128,1.178-1.027,1.233-0.246,0.665c0.388-0.287,0.957-0.719,1.608-1.262    c0.631-0.569,1.362-1.228,2.122-1.914c0.776-0.677,1.519-1.441,2.235-2.161c0.708-0.725,1.416-1.386,1.962-1.984    c1.101-1.191,1.824-1.926,1.67-1.599c-1.777,3.345-5.013,7.471-9.743,12.035c-2.413,2.227-5.128,4.647-8.339,6.98    c-1.566,1.221-3.307,2.338-5.082,3.558c-1.834,1.123-3.708,2.353-5.757,3.445c-4.484,2.442,3.365-1.475,3.577-1.512    c-0.605,0.472-1.406,1.062-2.377,1.64c-1.478,0.786-2.943,1.597-4.474,2.273c-0.895,0.411-1.774,0.855-2.679,1.239l-2.729,1.122    c0.483-0.19,0.958-0.376,1.444-0.568c2.952-1.173,5.711-2.555,8.202-3.922c-0.936,0.566-1.96,1.221-3.082,1.812    c-1.203,0.622-2.448,1.302-3.697,1.909c-1.26,0.586-2.494,1.16-3.625,1.686c12.968-4.711,24.885-12.507,34.319-22.67    c4.723-5.066,8.935-10.631,12.369-16.651c3.455-6.005,6.239-12.391,8.288-18.999c-3.154,9.93-8.071,19.052-13.981,26.765    c10.744-14.507,17.15-32.293,17.999-50.636c-0.001,1.011-0.101,2.018-0.168,3.025c-0.083,1.007-0.123,2.018-0.241,3.022    c-0.257,2.005-0.441,4.021-0.827,6.009c-0.624,4-1.636,7.931-2.782,11.815c2.262-7.021,3.613-14.424,4.145-21.869    c0.554-7.451,0.092-14.947-1.057-22.211c1.974,9.622,2.301,20.524,0.619,31.298c1.182-6.949,1.482-14.112,1.028-21.214    c-0.102-2.713-0.422-5.407-0.685-7.901c-0.377-2.476-0.662-4.762-1.027-6.611c1.445,6.826,2.015,12.648,2.293,18.136    c-0.267-11.977-2.748-24.112-7.62-35.511c2.659,6.191,4.842,12.851,6.175,19.698c1.34,6.84,1.897,13.838,1.58,20.57    c-0.015-0.788,0.018-1.575-0.028-2.366c-0.036-0.791-0.071-1.586-0.107-2.391c0.287,10.85-1.384,21.604-4.696,31.717    c-1.662,5.056-3.715,9.969-6.2,14.644c-2.484,4.674-5.349,9.131-8.56,13.316c3.673-4.29,7.551-10.354,10.646-17.015    c3.081-6.675,5.368-13.894,6.941-20.199c-2.314,11.322-6.907,22.494-13.571,32.471c-6.646,9.985-15.351,18.764-25.423,25.502    c-10.06,6.759-21.474,11.437-33.187,13.748c-5.856,1.161-11.779,1.764-17.657,1.809c-5.877,0.032-11.702-0.488-17.361-1.515    l3.005,0.571c1.002,0.19,2.018,0.295,3.026,0.445c2.016,0.324,4.055,0.446,6.087,0.633c4.073,0.229,8.168,0.306,12.25-0.005    c4.089-0.217,8.152-0.827,12.196-1.572c2.006-0.456,4.036-0.829,6.017-1.414c0.994-0.278,2-0.521,2.987-0.83l2.955-0.958    c-1.492,0.462-3.062,1.074-4.739,1.523c-0.692,0.203-1.396,0.41-2.101,0.618c4.45-1.195,8.735-2.677,12.91-4.496    c1.903-0.831,3.786-1.73,5.651-2.705c-3.472,1.838-7.05,3.472-10.714,4.872c-7.006,2.619-14.295,4.418-21.66,5.382    c-1.11,0.176-2.122,0.231-3.029,0.326c-0.908,0.09-1.714,0.169-2.428,0.24c-1.429,0.113-2.484,0.164-3.222,0.245    c-1.477,0.147-1.687,0.284-1.099,0.397c0.587,0.113,1.971,0.203,3.673,0.251c1.697-0.01,3.71-0.101,5.541-0.268    c18.397-1.887,35.288-9.107,48.824-19.916c13.545-10.811,23.919-25.172,29.701-41.467c0.363-0.946,0.642-1.922,0.944-2.89    c0.293-0.971,0.617-1.932,0.882-2.912c0.491-1.97,1.072-3.917,1.448-5.917l0.619-2.985l0.487-3.012l0.241-1.507l0.172-1.517    l0.342-3.034c0.698-8.114,0.422-16.315-0.812-24.363c-0.66-4.554-1.82-9.961-3.315-14.777c-0.395-1.197-0.781-2.365-1.15-3.484    c-0.4-1.107-0.825-2.151-1.203-3.133c-0.193-0.49-0.379-0.962-0.557-1.415c-0.2-0.444-0.39-0.869-0.571-1.271    c-0.37-0.801-0.7-1.516-0.981-2.124c-3.134-6.359-7.072-12.424-11.682-18.065c-4.605-5.643-9.896-10.868-15.861-15.418    c-0.747-0.566-1.494-1.134-2.244-1.703c-0.774-0.535-1.55-1.071-2.327-1.608l-1.166-0.806l-1.203-0.756    c-0.804-0.502-1.609-1.004-2.417-1.508c-3.295-1.904-6.67-3.739-10.228-5.261c-3.521-1.598-7.206-2.895-10.957-4.055    c-1.895-0.52-3.781-1.1-5.724-1.499c-0.968-0.209-1.928-0.463-2.907-0.638c-0.979-0.174-1.96-0.347-2.944-0.521    C100.363,0.01,93.04-0.285,85.724,0.265c-7.312,0.565-14.655,1.953-21.696,4.349l-2.635,0.913c-0.881,0.297-1.73,0.682-2.597,1.019    c-0.858,0.359-1.735,0.673-2.577,1.069l-2.532,1.173c-0.852,0.376-1.675,0.808-2.496,1.245l-2.469,1.297l-2.402,1.412    c-0.8,0.472-1.606,0.933-2.372,1.458l-2.324,1.528c-0.782,0.497-1.506,1.078-2.261,1.612c-0.741,0.554-1.51,1.07-2.226,1.654    l-2.157,1.737c-0.729,0.565-1.417,1.178-2.103,1.792l-2.063,1.83l-1.971,1.919c-0.656,0.639-1.319,1.271-1.93,1.951    c-5.031,5.298-9.451,11.078-13.066,17.194c-3.615,6.116-6.503,12.509-8.667,18.962c-4.375,12.92-5.63,26.023-5.046,37.858    C0.008,97.365-0.013,90.378,0.887,83.482z M142.019,173.928c3.038-1.966,5.968-4.097,8.765-6.389    C147.944,169.878,145.026,172.038,142.019,173.928z M182.236,119.646c-0.299,0.901-0.552,1.791-0.882,2.641    c-0.323,0.852-0.641,1.69-0.957,2.523l-0.466,1.248l-0.513,1.231c-0.339,0.823-0.672,1.653-0.997,2.501    c-1.848,4.606-4.058,9.082-6.587,13.35c-2.521,4.275-5.443,8.281-8.565,12.04c-1.542,1.899-3.222,3.66-4.874,5.421    c-0.863,0.844-1.724,1.686-2.581,2.523c-0.847,0.848-1.774,1.604-2.652,2.404c-0.736,0.64-1.478,1.266-2.225,1.882    c2.772-2.281,5.413-4.718,7.896-7.312c-3.789,3.921-7.616,7.205-11.689,10.188c-1.036,0.722-2.037,1.496-3.113,2.176    c-1.073,0.684-2.153,1.372-3.247,2.069c-1.127,0.641-2.269,1.289-3.43,1.949c-1.167,0.648-2.399,1.224-3.634,1.855    c0.718-0.431,1.658-0.952,2.685-1.508c1.021-0.567,2.092-1.237,3.138-1.85c1.054-0.601,2.012-1.261,2.808-1.813    c0.796-0.552,1.42-1.01,1.745-1.306c-0.464,0.315-0.936,0.617-1.406,0.924c0.503-0.333,1.006-0.669,1.507-1.015    c-0.021,0.023-0.065,0.059-0.101,0.091c10.932-7.466,20.245-17.277,27.223-28.462c7.009-11.175,11.57-23.781,13.46-36.601    C184.369,111.937,183.427,116.043,182.236,119.646z M175.582,54.294c-0.294-0.688-0.59-1.374-0.923-2.034    C174.997,52.928,175.29,53.611,175.582,54.294z M167.134,41.596c3.025,4.566,5.623,9.379,7.773,14.352    c0.25,0.549,0.486,1.106,0.719,1.664c4.963,12.154,7.221,25.192,6.89,38.036c0.084-4.25-0.198-8.498-0.669-12.71    c-0.533-4.854-1.518-9.65-2.824-14.341c-2.562-9.407-6.723-18.323-12.005-26.451c0.485,0.67,0.996,1.396,1.525,2.166    c0.536,0.766,1.083,1.581,1.59,2.463l-0.638-1.109l-0.689-1.079l-1.378-2.156c-0.938-1.424-1.955-2.796-2.934-4.192    c-1.062-1.334-2.069-2.712-3.174-4.011c-0.836-0.953-1.637-1.938-2.485-2.879C161.827,34.504,164.636,37.889,167.134,41.596z     M96.886,1.152c1.467,0.078,2.937,0.221,4.407,0.331c1.204,0.101,2.402,0.279,3.588,0.413c0.356,0.015,0.732,0.039,1.204,0.092    c0.471,0.065,1.034,0.186,1.769,0.354c5.469,0.912,10.459,2.283,14.001,3.699c6.798,2.573,13.123,5.774,18.86,9.471    c5.739,3.69,10.889,7.887,15.246,12.471c2.008,2.179,1.422,1.704,0.315,0.646c0.551,0.585,1.104,1.172,1.662,1.764    c-0.736-0.734-1.459-1.478-2.206-2.196l-2.301-2.09c0.56,0.49,1.918,1.663,2.845,2.522c-7.389-7.539-16.026-13.799-25.375-18.404    c-9.356-4.603-19.431-7.446-29.502-8.581c1.618,0.18,2.412,0.22,3.168,0.24c-1.085-0.127-2.173-0.301-3.274-0.401    c-1.479-0.097-2.955-0.229-4.423-0.301c-1.469-0.035-2.927-0.069-4.36-0.103C93.954,1.078,95.417,1.118,96.886,1.152z"></path>
      <path d="M115.942,184.69c0.143-0.042,0.283-0.083,0.426-0.125c-0.446,0.12-0.885,0.252-1.334,0.366    C115.338,184.855,115.643,184.781,115.942,184.69z"></path>
      <path d="M160.424,146.151c4.235-5.587,7.977-12.263,10.366-18.014l-0.029,0.006c-6.061,14.322-15.892,26.66-28.16,35.744    c2.378-1.65,4.53-3.248,6.418-4.703C151.717,156.364,156.232,151.778,160.424,146.151z"></path>
      <path d="M35.35,162.846c7.172,6.412,15.821,11.992,25.448,15.751c3.754,1.413,7.585,2.651,11.503,3.523    c1.944,0.502,3.929,0.812,5.899,1.181c0.987,0.175,1.987,0.272,2.979,0.412c0.994,0.129,1.986,0.275,2.987,0.333    c-4.519-0.501-9.005-1.251-13.372-2.44c-4.364-1.185-8.642-2.65-12.769-4.449c-4.113-1.831-8.087-3.942-11.894-6.314    C42.345,168.435,38.755,165.746,35.35,162.846z"></path>
      <path d="M123.877,174.277l-2.219,0.871l-2.266,0.756c-1.5,0.54-3.047,0.944-4.59,1.373c1.551-0.39,3.111-0.754,4.624-1.254    c0.763-0.233,1.524-0.466,2.283-0.698c0.746-0.272,1.489-0.544,2.23-0.815C123.853,174.466,123.345,174.565,123.877,174.277z"></path>
      <path d="M97.683,179.965c-1.16,0.099-2.326,0.09-3.494,0.102c-1.168,0.014-2.338,0.039-3.509-0.038    c0.565,0.053,1.093,0.103,1.576,0.148c0.482,0.031,0.916,0.068,1.295,0.113C94.932,180.172,96.303,180.139,97.683,179.965z"></path>
      <path d="M51.441,169.209c1.341,0.787,2.765,1.48,4.178,2.244c0.354,0.194,0.996,0.415,1.801,0.709    c-1.721-0.739-3.37-1.655-5.046-2.505c-0.83-0.441-1.629-0.935-2.443-1.395c-0.812-0.464-1.621-0.927-2.389-1.445    c0.31,0.208,0.623,0.417,0.937,0.626c0.324,0.194,0.65,0.388,0.977,0.584C50.111,168.417,50.774,168.812,51.441,169.209z"></path>
    </g>
  </g>
  <g id="SvgjsG23942" fill="#000000" transform="matrix(3.3365136897719005,0,0,3.3365136897719005,53.831517793688576,54.9603787885658)">
    <g xmlns="http://www.w3.org/2000/svg">
      <g>
        <path d="M4.34,1.227c-1.315,1.421-2.047,3.894-1.864,6.3c0.031,0.407,0.068,0.82,0.109,1.234v0.001    c0.132,1.335,0.306,2.689,0.467,3.941c0.188,1.456,0.365,2.831,0.423,3.815c0.296,4.957,1.473,7.47,3.499,7.47v-2.114    c-0.881-0.371-1.5-1.698-1.5-3.386c0-1.622,0.573-2.904,1.398-3.333l-0.065-1.166H5.974c-0.276,0-0.5-0.224-0.5-0.5    s0.224-0.5,0.5-0.5h0.777l-0.056-1H5.973c-0.276,0-0.5-0.224-0.5-0.5s0.224-0.5,0.5-0.5h0.666L6.582,9.964    c0.129,0.011,0.257,0.021,0.375,0.024L7.15,9.99c0.136,0,0.289-0.018,0.433-0.027l0.057,1.024h0.833c0.276,0,0.5,0.224,0.5,0.5    s-0.224,0.5-0.5,0.5H7.696l0.056,1h0.722c0.276,0,0.5,0.224,0.5,0.5s-0.224,0.5-0.5,0.5H7.808l0.059,1.065    c0.939,0.303,1.607,1.677,1.607,3.435c0,1.689-0.619,3.016-1.5,3.386v2.075c2.743-0.388,2.883-3.986,2.966-6.187    c0.01-0.27,0.02-0.52,0.033-0.744c0.045-0.751,0.09-1.763,0.141-2.903c0.074-1.659,0.16-3.591,0.275-5.386    c0.026-0.409,0.054-0.813,0.083-1.202c0.183-2.406-0.549-4.879-1.865-6.3C8.105-0.393,5.842-0.393,4.34,1.227z M10.477,7.45    c-0.022,0.287-0.043,0.581-0.063,0.88c-0.099,0.034-0.197,0.068-0.295,0.1C9.986,8.472,9.855,8.516,9.724,8.554    c-0.19,0.055-0.378,0.105-0.562,0.15C9.094,8.721,9.027,8.737,8.96,8.752C8.718,8.805,8.481,8.852,8.254,8.888    c-0.001,0-0.003,0-0.004,0.001C8,8.927,7.759,8.953,7.53,8.966v0.002C7.404,8.977,7.271,8.99,7.152,8.99L6.991,8.989    c-0.189-0.006-0.412-0.03-0.636-0.057C6.212,8.914,6.064,8.893,5.912,8.87C5.774,8.849,5.636,8.826,5.495,8.8    C5.342,8.773,5.188,8.742,5.034,8.709C4.888,8.679,4.743,8.646,4.6,8.614C4.455,8.58,4.313,8.544,4.174,8.508    C4.034,8.472,3.9,8.435,3.77,8.398C3.692,8.375,3.621,8.352,3.548,8.331C3.52,8.034,3.495,7.742,3.473,7.45    C3.312,5.341,3.956,3.114,5.075,1.906c1.13-1.219,2.67-1.219,3.8,0C9.994,3.114,10.637,5.341,10.477,7.45z M19.66,1.227    c-1.502-1.62-3.765-1.62-5.267,0c-1.316,1.421-2.048,3.894-1.865,6.3c0.03,0.39,0.057,0.793,0.083,1.202    c0.116,1.795,0.202,3.728,0.275,5.386c0.051,1.14,0.096,2.152,0.141,2.903c0.013,0.224,0.023,0.475,0.033,0.744    c0.084,2.201,0.224,5.799,2.966,6.187v-2.075c-0.881-0.371-1.5-1.698-1.5-3.386c0-1.758,0.668-3.132,1.607-3.435l0.059-1.065    h-0.666c-0.276,0-0.5-0.224-0.5-0.5s0.224-0.5,0.5-0.5h0.722l0.056-1h-0.777c-0.276,0-0.5-0.224-0.5-0.5s0.224-0.5,0.5-0.5h0.833    l0.057-1.024c0.144,0.009,0.297,0.027,0.433,0.027l0.193-0.003c0.117-0.004,0.245-0.014,0.375-0.024l-0.057,1.025h0.666    c0.276,0,0.5,0.224,0.5,0.5s-0.224,0.5-0.5,0.5h-0.722l-0.056,1h0.777c0.276,0,0.5,0.224,0.5,0.5s-0.224,0.5-0.5,0.5h-0.833    l-0.065,1.167c0.825,0.429,1.398,1.711,1.398,3.333c0,1.689-0.619,3.016-1.5,3.386v2.114c2.026,0,3.203-2.513,3.499-7.47    c0.059-0.984,0.236-2.359,0.423-3.815c0.161-1.252,0.335-2.606,0.467-3.941V8.761c0.041-0.415,0.078-0.827,0.109-1.234    C21.709,5.12,20.977,2.648,19.66,1.227z M20.529,7.45c-0.022,0.291-0.047,0.585-0.075,0.881c-0.073,0.022-0.144,0.045-0.222,0.067    c-0.13,0.037-0.263,0.074-0.404,0.111c-0.139,0.036-0.281,0.071-0.426,0.105c-0.143,0.034-0.288,0.065-0.434,0.096    c-0.154,0.032-0.307,0.063-0.461,0.091c-0.142,0.026-0.28,0.048-0.417,0.07c-0.152,0.023-0.3,0.045-0.443,0.061    c-0.225,0.027-0.447,0.051-0.636,0.057L16.85,8.99c-0.118,0-0.251-0.015-0.378-0.022V8.966c-0.229-0.014-0.47-0.04-0.72-0.078    c-0.001,0-0.003,0-0.004-0.001c-0.227-0.035-0.465-0.082-0.706-0.136c-0.067-0.015-0.134-0.032-0.202-0.048    c-0.184-0.045-0.372-0.095-0.562-0.15c-0.13-0.038-0.262-0.081-0.395-0.124c-0.098-0.032-0.196-0.065-0.295-0.1    c-0.02-0.299-0.041-0.593-0.063-0.88c-0.161-2.108,0.483-4.336,1.602-5.543c1.13-1.219,2.67-1.219,3.8,0    C20.046,3.114,20.689,5.341,20.529,7.45z"></path>
      </g>
    </g>
  </g>
  <g id="SvgjsG23943" fill="#000000" transform="matrix(5.127073122799546,0,0,5.127073122799546,193.96755856333402,11.222874722847681)">
    <path d="M7.44 9.72 c-1.2 0.2 -1.08 -0.96 -2.06 -1.98 c-0.42 -0.44 -1.42 -0.56 -1.74 -0.16 c-0.54 0.6 -0.48 1.7 -0.12 2.48 c0.62 1.28 1.6 2.22 2.48 3.2 c1.76 1.98 2.12 2.86 2.04 4.12 c-0.2 2.58 -4.28 4.56 -8.1 3.64 c0 0 -0.16 -0.14 -0.12 -0.36 c0.04 -0.16 0.32 -0.38 0.42 -0.38 c1.76 -0.4 3.66 -3.02 3.42 -4.4 c-0.22 -1.44 -1.92 -3.16 -2.78 -4.38 c-0.66 -0.86 -1.14 -1.94 -1.06 -3.14 c0.12 -0.58 0.66 -1.68 2.04 -2.32 c0.88 -0.42 2.18 -0.72 4.16 -0.14 c2.08 0.64 2.22 1.74 2.22 2.44 c0 0.84 -0.42 1.32 -0.8 1.38 z M12.58 14.14 c0 0.88 -0.12 2.46 0.68 3.82 c0.82 1.4 1.28 1.38 2.34 2.06 c0.44 0.28 0.06 1.06 -0.36 1.06 c-0.54 0 -2.22 -0.48 -3.26 -1.22 c-1.22 -0.88 -2.22 -2.32 -2.34 -5.74 c0.14 -2.78 1.32 -4.06 2.66 -4.98 c1.16 -0.8 3 -0.22 3.54 0.18 c0.7 0.52 0.76 1.32 0.44 2.22 c-0.36 1.14 -1.3 1.76 -2.5 2.24 c-0.3 0.12 -0.9 0.26 -1.2 0.36 z M12.48 13.14 c1.18 -0.44 2 -0.54 2.32 -1.8 c0.14 -0.56 -0.18 -1.94 -0.74 -1.84 c-0.96 0.18 -1.22 1.78 -1.44 2.54 c-0.08 0.3 -0.08 0.78 -0.14 1.1 z M24.28 16.96 c0.06 0.42 -0.2 1.1 -0.52 1.62 c-0.38 0.6 -1.4 1.4 -2.3 1.34 c-3.18 -0.24 -3.96 -2.42 -3.96 -5.02 c-0.06 -0.82 0.44 -2.42 0.9 -3.16 c0.7 -1.16 2.2 -2.26 3.44 -2.26 c1.24 -0.04 2.4 1.68 2.52 2.84 c0.08 0.66 -0.48 1.14 -0.94 0.84 c-0.66 -0.5 -0.28 -2.2 -1.16 -2.2 c-1.96 0 -2.5 3.54 -2.22 4.98 c0.16 0.8 0.56 1.96 1.68 2.54 c0.7 0.36 1.38 -0.94 1.74 -1.68 c0.3 -0.56 0.76 -0.26 0.82 0.16 z M30.020000000000003 11.6 c-0.06 -0.2 0.22 -0.48 0.34 -0.54 c0.52 -0.24 1.18 0.12 1.24 0.16 c0.34 0.18 0.68 0.86 0.74 1.22 c0.28 1.18 0.2 2.54 -0.18 3.64 c-0.26 0.9 -1.68 2.2 -2.56 2.26 c-0.88 0.1 -1.6 0.04 -2.34 -0.38 c-1.44 -0.78 -1.56 -2.8 -1.44 -4.02 c0.24 -1.58 0.96 -3.02 2.66 -3.72 c0.36 -0.08 0.7 0.04 1.02 0.2 c0.34 0.22 0.16 0.64 0.04 1.02 c-0.26 0.64 -0.82 0.9 -1.24 1.6 c-0.22 0.46 -0.34 1.82 -0.08 2.6 c0.28 0.84 0.5 1.7 1.48 1.54 c0.9 -0.12 1.16 -0.5 1.52 -1.4 c0.36 -0.92 0.56 -2.58 -0.02 -3.36 c-0.18 -0.26 -0.42 -0.44 -0.78 -0.4 c-0.18 0 -0.22 -0.06 -0.4 -0.42 z M41.5 19.1 c0.02 0.28 0 0.44 -0.28 0.52 c-0.34 0 -1.22 0 -1.56 -0.18 c-0.6 -0.34 -0.68 -1.26 -0.72 -2.38 c-0.06 -1.86 0.62 -4.14 -0.22 -5.66 c-1.36 -0.52 -2.02 1.02 -2.42 1.98 c-0.2 0.52 -0.32 1.28 -0.32 1.86 c0 0.38 0.06 1.8 0.08 2.16 c0.02 0.62 -0.24 1.06 -0.86 1.02 c-0.78 -0.02 -1.34 -0.6 -1.4 -1.48 c-0.08 -1.56 -0.06 -3.96 -0.14 -5.88 c0 -0.28 -0.02 -1.18 0.12 -1.44 c0.3 -0.6 0.6 -0.54 1.14 -0.42 c0.1 0.04 0.46 0.28 0.5 0.4 c0.44 0.58 0.34 1.96 0.4 2.82 c0.52 -1.36 1.9 -2.82 2.84 -2.82 c2.18 -0.28 2.44 1.54 2.52 3.36 c0.06 1.02 0.12 2.22 0.18 3.2 c0 0.62 0.1 2.28 0.14 2.94 z M50.64000000000001 15.7 c0 1.68 -0.04 2.84 0.28 6.12 c-0.08 0.52 -1.12 1.04 -1.36 1 c-0.4 -0.08 -0.58 -0.9 -0.84 -1.96 c-0.2 -0.84 -0.26 -3.24 -0.2 -4 c-0.36 0.7 -1.02 1.86 -1.44 2.16 c-0.7 0.5 -1.58 0.76 -2.64 0.36 c-0.26 -0.1 -0.46 -0.26 -0.6 -0.42 c-0.78 -0.86 -1.16 -1.86 -1.1 -2.96 c0.16 -2.2 1.34 -4.16 3.46 -5.22 c0.58 -0.28 1.42 -0.24 1.96 0.08 c0.04 -0.48 0.08 -1.92 0.14 -2.44 c0.04 -0.64 0 -2.4 0.66 -3.6 c0.12 -0.18 0.7 -0.68 0.94 -0.74 c0.38 -0.12 1.18 0.16 1.28 0.68 c-0.14 2.06 -0.42 2 -0.54 4.7 c-0.04 0.9 0 5.08 0 6.24 z M48.24000000000001 15.42 c0.18 -0.46 0 -1.84 -0.18 -2.64 c-0.04 -0.14 -0.48 -0.32 -0.64 -0.32 c-1.14 0 -2.42 1.9 -2.76 3.22 c-0.2 0.76 0.06 2.14 1.12 2.34 c0.56 0.1 1.18 -0.54 1.4 -0.9 c0.64 -1.04 0.88 -1.26 1.06 -1.7 z M52.38000000000001 11.12 c0 -3.48 -0.24 -3.62 0.08 -5.48 c0.04 -0.26 0.28 -0.9 0.52 -1.18 c0.54 -0.64 1.38 0.02 1.6 0.72 c0.08 0.06 0.18 0.56 0.2 0.7 c0.14 0.86 0.12 2.6 0.08 3.06 c-0.18 2 -0.12 1.22 0.06 4.92 c0.74 -1.16 1.76 -2.9 2.9 -3.32 c0.7 -0.32 1.92 -0.58 2.42 0.66 c0.3 0.42 0.16 5.02 0.16 8.18 c0 0.62 0.2 2.34 -0.36 2.7 c-0.82 0.54 -1.72 -0.6 -1.92 -2.98 c-0.22 -2.56 0.22 -7.02 -0.24 -7.14 c-0.52 -0.14 -0.98 0.44 -1.56 1.14 c-0.9 1.2 -0.78 1.52 -1.1 2.28 c-0.04 0.08 0 2.62 -0.04 2.72 c0 0.38 0.1 0.88 -0.26 1.12 c-0.38 0.28 -0.46 0.48 -0.92 0.66 c-0.76 0.12 -1.46 -1.74 -1.52 -2.26 c-0.16 -2.22 -0.1 -4.36 -0.1 -6.5 z M65.36 9.12 c0.48 -0.14 0.92 0.04 1.36 0.22 c0.12 -0.32 0.08 -0.86 0.32 -1.14 c0.16 -0.18 1.32 -0.2 1.48 -0.2 c0.42 0 0.48 0.72 0.5 1.24 c0.1 1.04 0.02 3.44 0.02 4.34 c0 1.56 0.5 4.94 0.3 6.38 c-0.06 0.44 -1.2 0.64 -1.48 0.44 c-0.98 -0.22 -0.64 -4.02 -0.9 -4.8 c-0.26 0.42 -0.58 1.64 -1.24 2.22 s-1.62 0.76 -2.34 0.32 c-0.9 -0.56 -1.66 -2.06 -1.5 -3.8 c0.14 -1.6 0.62 -2.6 1.36 -3.62 c0.5 -0.7 1.42 -1.42 2.12 -1.6 z M64.96000000000001 16.68 c1.14 -0.36 1.7 -2.22 2 -3.28 c0.18 -0.58 -0.08 -2.52 -0.44 -2.9 c-0.42 0.22 -0.84 0.7 -1.34 1.22 c-0.48 0.52 -0.88 2.04 -0.96 3.04 c-0.06 0.6 0.22 1.84 0.74 1.92 z M78.78000000000002 19.1 c0.02 0.28 0 0.44 -0.28 0.52 c-0.34 0 -1.22 0 -1.56 -0.18 c-0.6 -0.34 -0.68 -1.26 -0.72 -2.38 c-0.06 -1.86 0.62 -4.14 -0.22 -5.66 c-1.36 -0.52 -2.02 1.02 -2.42 1.98 c-0.2 0.52 -0.32 1.28 -0.32 1.86 c0 0.38 0.06 1.8 0.08 2.16 c0.02 0.62 -0.24 1.06 -0.86 1.02 c-0.78 -0.02 -1.34 -0.6 -1.4 -1.48 c-0.08 -1.56 -0.06 -3.96 -0.14 -5.88 c0 -0.28 -0.02 -1.18 0.12 -1.44 c0.3 -0.6 0.6 -0.54 1.14 -0.42 c0.1 0.04 0.46 0.28 0.5 0.4 c0.44 0.58 0.34 1.96 0.4 2.82 c0.52 -1.36 1.9 -2.82 2.84 -2.82 c2.18 -0.28 2.44 1.54 2.52 3.36 c0.06 1.02 0.12 2.22 0.18 3.2 c0 0.62 0.1 2.28 0.14 2.94 z M87.92000000000002 15.7 c0 1.68 -0.04 2.84 0.28 6.12 c-0.08 0.52 -1.12 1.04 -1.36 1 c-0.4 -0.08 -0.58 -0.9 -0.84 -1.96 c-0.2 -0.84 -0.26 -3.24 -0.2 -4 c-0.36 0.7 -1.02 1.86 -1.44 2.16 c-0.7 0.5 -1.58 0.76 -2.64 0.36 c-0.26 -0.1 -0.46 -0.26 -0.6 -0.42 c-0.78 -0.86 -1.16 -1.86 -1.1 -2.96 c0.16 -2.2 1.34 -4.16 3.46 -5.22 c0.58 -0.28 1.42 -0.24 1.96 0.08 c0.04 -0.48 0.08 -1.92 0.14 -2.44 c0.04 -0.64 0 -2.4 0.66 -3.6 c0.12 -0.18 0.7 -0.68 0.94 -0.74 c0.38 -0.12 1.18 0.16 1.28 0.68 c-0.14 2.06 -0.42 2 -0.54 4.7 c-0.04 0.9 0 5.08 0 6.24 z M85.52000000000001 15.42 c0.18 -0.46 0 -1.84 -0.18 -2.64 c-0.04 -0.14 -0.48 -0.32 -0.64 -0.32 c-1.14 0 -2.42 1.9 -2.76 3.22 c-0.2 0.76 0.06 2.14 1.12 2.34 c0.56 0.1 1.18 -0.54 1.4 -0.9 c0.64 -1.04 0.88 -1.26 1.06 -1.7 z  M102.9 9.72 c-1.2 0.2 -1.08 -0.96 -2.06 -1.98 c-0.42 -0.44 -1.42 -0.56 -1.74 -0.16 c-0.54 0.6 -0.48 1.7 -0.12 2.48 c0.62 1.28 1.6 2.22 2.48 3.2 c1.76 1.98 2.12 2.86 2.04 4.12 c-0.2 2.58 -4.28 4.56 -8.1 3.64 c0 0 -0.16 -0.14 -0.12 -0.36 c0.04 -0.16 0.32 -0.38 0.42 -0.38 c1.76 -0.4 3.66 -3.02 3.42 -4.4 c-0.22 -1.44 -1.92 -3.16 -2.78 -4.38 c-0.66 -0.86 -1.14 -1.94 -1.06 -3.14 c0.12 -0.58 0.66 -1.68 2.04 -2.32 c0.88 -0.42 2.18 -0.72 4.16 -0.14 c2.08 0.64 2.22 1.74 2.22 2.44 c0 0.84 -0.42 1.32 -0.8 1.38 z M105.30000000000001 11.12 c0 -3.48 -0.24 -3.62 0.08 -5.48 c0.04 -0.26 0.28 -0.9 0.52 -1.18 c0.54 -0.64 1.38 0.02 1.6 0.72 c0.08 0.06 0.18 0.56 0.2 0.7 c0.14 0.86 0.12 2.6 0.08 3.06 c-0.18 2 -0.12 1.22 0.06 4.92 c0.74 -1.16 1.76 -2.9 2.9 -3.32 c0.7 -0.32 1.92 -0.58 2.42 0.66 c0.3 0.42 0.16 5.02 0.16 8.18 c0 0.62 0.2 2.34 -0.36 2.7 c-0.82 0.54 -1.72 -0.6 -1.92 -2.98 c-0.22 -2.56 0.22 -7.02 -0.24 -7.14 c-0.52 -0.14 -0.98 0.44 -1.56 1.14 c-0.9 1.2 -0.78 1.52 -1.1 2.28 c-0.04 0.08 0 2.62 -0.04 2.72 c0 0.38 0.1 0.88 -0.26 1.12 c-0.38 0.28 -0.46 0.48 -0.92 0.66 c-0.76 0.12 -1.46 -1.74 -1.52 -2.26 c-0.16 -2.22 -0.1 -4.36 -0.1 -6.5 z M119 11.6 c-0.06 -0.2 0.22 -0.48 0.34 -0.54 c0.52 -0.24 1.18 0.12 1.24 0.16 c0.34 0.18 0.68 0.86 0.74 1.22 c0.28 1.18 0.2 2.54 -0.18 3.64 c-0.26 0.9 -1.68 2.2 -2.56 2.26 c-0.88 0.1 -1.6 0.04 -2.34 -0.38 c-1.44 -0.78 -1.56 -2.8 -1.44 -4.02 c0.24 -1.58 0.96 -3.02 2.66 -3.72 c0.36 -0.08 0.7 0.04 1.02 0.2 c0.34 0.22 0.16 0.64 0.04 1.02 c-0.26 0.64 -0.82 0.9 -1.24 1.6 c-0.22 0.46 -0.34 1.82 -0.08 2.6 c0.28 0.84 0.5 1.7 1.48 1.54 c0.9 -0.12 1.16 -0.5 1.52 -1.4 c0.36 -0.92 0.56 -2.58 -0.02 -3.36 c-0.18 -0.26 -0.42 -0.44 -0.78 -0.4 c-0.18 0 -0.22 -0.06 -0.4 -0.42 z M125.44 14.14 c0 0.88 -0.12 2.46 0.68 3.82 c0.82 1.4 1.28 1.38 2.34 2.06 c0.44 0.28 0.06 1.06 -0.36 1.06 c-0.54 0 -2.22 -0.48 -3.26 -1.22 c-1.22 -0.88 -2.22 -2.32 -2.34 -5.74 c0.14 -2.78 1.32 -4.06 2.66 -4.98 c1.16 -0.8 3 -0.22 3.54 0.18 c0.7 0.52 0.76 1.32 0.44 2.22 c-0.36 1.14 -1.3 1.76 -2.5 2.24 c-0.3 0.12 -0.9 0.26 -1.2 0.36 z M125.34 13.14 c1.18 -0.44 2 -0.54 2.32 -1.8 c0.14 -0.56 -0.18 -1.94 -0.74 -1.84 c-0.96 0.18 -1.22 1.78 -1.44 2.54 c-0.08 0.3 -0.08 0.78 -0.14 1.1 z M134.9 11.96 c-0.86 0.12 -0.76 -0.74 -1 -1.18 c-0.12 -0.2 -0.2 -0.34 -0.42 -0.06 c-0.38 0.44 -0.48 0.96 -0.22 1.5 c0.44 0.92 1 1.6 1.64 2.3 c1.26 1.42 1.38 2.32 1.32 3.22 c-0.14 1.84 -3.06 3.26 -5.8 2.6 c0 0 -0.1 -0.1 -0.08 -0.26 c0.02 -0.12 0.22 -0.28 0.3 -0.28 c1.26 -0.28 2.34 -1.86 2.18 -2.88 s-1.1 -2.52 -1.72 -3.38 c-0.48 -0.64 -0.82 -1.4 -0.76 -2.26 c0.08 -0.42 0.48 -1.2 1.46 -1.66 c0.64 -0.3 1.9 0.06 2.58 0.6 c0.44 0.32 0.64 0.76 0.72 1.06 s0.08 0.64 -0.2 0.68 z"></path>
  </g>
  <g id="SvgjsG23944" fill="#000000" transform="matrix(2.3953645540318274,0,0,2.3953645540318274,485.55292667173114,106.83487885525699)">
    <path d="M0.08 18.2 c0.26 0.08 0.7 0.2 1.14 0.3 c0.26 0.06 0.54 0.08 0.82 0.12 c0.04 0.02 0.08 0.02 0.12 0 c0.18 -0.08 0.34 -0.16 0.52 -0.24 c-0.14 -0.1 -0.24 -0.24 -0.38 -0.32 c-0.72 -0.42 -1.28 -0.96 -1.6 -1.72 c-0.12 -0.28 -0.1 -0.62 -0.12 -0.94 c-0.02 -0.14 0.04 -0.28 0.04 -0.42 c-0.02 -0.72 0.5 -1.08 1.04 -1.42 c0.12 -0.08 0.42 -0.08 0.54 0.02 c0.62 0.4 1.2 0.84 1.78 1.26 c0.08 0.06 0.18 0.16 0.22 0.24 c0.08 0.22 0.26 0.44 0.02 0.68 c-0.2 0.2 -0.5 0.28 -0.76 0.16 c-0.12 -0.06 -0.24 -0.14 -0.36 -0.22 c-0.28 -0.14 -0.46 -0.06 -0.64 0.2 c-0.24 0.38 -0.24 0.54 0.04 0.74 c0.24 0.18 0.48 0.34 0.74 0.5 c0.66 0.4 1.16 0.96 1.52 1.6 c0.28 0.52 0.4 1.12 0.16 1.72 c-0.1 0.22 -0.44 0.34 -0.76 0.3 c-0.12 0 -0.26 0.06 -0.38 0.06 c-0.26 0.04 -0.52 0.12 -0.76 0.1 c-0.44 -0.02 -0.9 -0.02 -1.3 -0.16 c-0.5 -0.18 -1.06 -0.24 -1.5 -0.66 c-0.22 -0.2 -0.42 -0.44 -0.64 -0.66 c-0.18 -0.18 -0.3 -0.4 -0.18 -0.7 c0.02 -0.02 0.02 -0.06 0.02 -0.1 c0.06 -0.44 0.06 -0.44 0.66 -0.44 z M10.956 14.16 c0.58 0.26 1.12 0.04 1.68 -0.08 c0.58 -0.1 1.14 -0.1 1.72 0 c0.1 0.02 0.22 0.06 0.28 0.14 c0.08 0.06 0.18 0.2 0.16 0.28 s-0.16 0.16 -0.26 0.2 c-0.52 0.14 -1.06 0.26 -1.6 0.4 c-0.16 0.04 -0.34 0.06 -0.52 0.1 c-0.12 0.04 -0.3 0.1 -0.32 0.18 c-0.1 0.36 -0.2 0.74 -0.22 1.12 c-0.02 0.2 0.18 0.14 0.32 0.12 c0.48 -0.1 0.94 -0.22 1.4 -0.26 c0.28 -0.02 0.58 0.06 0.86 0.14 c0.1 0.02 0.16 0.16 0.24 0.26 c-0.12 0.1 -0.28 0.32 -0.36 0.3 c-0.4 -0.14 -0.64 0.16 -0.88 0.34 c-0.32 0.26 -0.66 0.38 -1.04 0.44 c-0.4 0.08 -0.44 0.16 -0.32 0.52 c0.18 0.64 0.18 0.62 0.84 0.58 c0.72 -0.04 1.44 -0.06 2.16 -0.08 c0.14 0 0.26 0.12 0.38 0.18 c-0.04 0.08 -0.08 0.18 -0.14 0.26 c-0.74 1 -1.82 0.86 -2.86 0.82 c-0.16 0 -0.32 -0.04 -0.48 -0.02 c-0.44 0.08 -0.8 -0.12 -1.16 -0.32 c-0.34 -0.18 -0.36 -0.54 -0.42 -0.86 c-0.1 -0.54 -0.16 -1.1 -0.22 -1.66 c-0.08 -0.98 -0.2 -1.98 0.12 -2.94 c0.06 -0.22 0.2 -0.22 0.36 -0.22 c0.1 0.02 0.2 0.04 0.28 0.06 z M21.892 18.16 c0.02 0.6 0.02 1.16 0.06 1.74 c0.02 0.26 -0.16 0.34 -0.26 0.38 c-0.62 0.2 -1.3 -0.26 -1.44 -0.88 c-0.24 -1.08 -0.24 -2.14 -0.12 -3.22 c0.04 -0.7 0.16 -1.4 0.26 -2.1 c0.02 -0.08 0.24 -0.18 0.32 -0.14 c0.42 0.14 0.88 0.24 1.16 0.68 c0.08 0.12 0.14 0.28 0.22 0.42 c0.08 0.16 0.16 0.34 0.28 0.54 c0.02 0.04 0.1 0.06 0.18 0.12 c0.02 -0.08 0.08 -0.14 0.08 -0.22 c0.04 -0.46 0.04 -0.92 0.12 -1.38 c0.04 -0.2 0.22 -0.46 0.4 -0.54 c0.36 -0.18 0.76 -0.26 1.14 -0.34 c0.28 -0.04 0.42 0.18 0.52 0.44 c0.04 0.12 0.1 0.26 0.2 0.34 c0.24 0.2 0.32 0.42 0.26 0.74 c-0.16 0.94 -0.28 1.88 -0.4 2.82 c-0.06 0.38 -0.16 0.76 -0.16 1.16 c0 0.32 0.14 0.66 0.2 0.98 c0.04 0.14 0.12 0.28 0.08 0.4 c-0.06 0.2 -0.1 0.32 -0.44 0.28 c-0.74 -0.04 -1.24 -0.58 -1.82 -0.9 c-0.16 -0.08 -0.34 -0.26 -0.28 -0.58 c0.1 -0.4 -0.2 -0.74 -0.44 -1.06 l-0.08 0.02 l0 0.3 l-0.04 0 z M35.108 16.3 c-0.1 0.78 -0.4 1.52 -0.76 2.2 c-0.26 0.48 -0.6 0.92 -0.92 1.38 c-0.28 0.38 -0.72 0.44 -1.16 0.46 c-0.18 0 -0.38 -0.04 -0.56 -0.08 c-0.14 0 -0.26 -0.06 -0.38 0.06 c-0.02 0.04 -0.14 0 -0.2 -0.04 c-0.52 -0.28 -0.52 -1.08 -0.02 -1.36 c0.1 -0.06 0.1 -0.12 0.08 -0.26 c-0.08 -0.46 -0.16 -0.94 -0.22 -1.42 c-0.06 -0.52 -0.1 -1.04 -0.16 -1.56 c-0.02 -0.14 0 -0.2 0.14 -0.2 c0.26 0 0.52 0 0.8 0.02 c0.16 0 0.28 0.1 0.3 0.26 c0.1 0.52 0.2 1.06 0.3 1.6 c0.02 0.2 0.06 0.4 0.1 0.6 c0.02 0.02 0.04 0.06 0.08 0.1 c0.02 -0.04 0.04 -0.06 0.06 -0.08 c0.4 -0.56 0.62 -1.18 0.8 -1.84 c0.12 -0.4 0.12 -0.76 0 -1.16 c-0.06 -0.16 -0.14 -0.24 -0.32 -0.24 c-0.66 0 -1.28 0.18 -1.88 0.42 c-0.02 0 -0.04 0.02 -0.04 0.02 c-0.08 0.08 -0.18 0.22 -0.24 0.2 c-0.3 -0.04 -0.6 -0.12 -0.88 -0.22 c-0.04 -0.02 -0.08 -0.26 -0.02 -0.32 c0.22 -0.2 0.44 -0.46 0.72 -0.56 c0.62 -0.28 1.3 -0.4 2 -0.38 c0.2 0.02 0.42 0 0.62 0.02 c0.7 0.06 1.24 0.4 1.52 1.04 c0.18 0.42 0.34 0.86 0.24 1.34 z  M53.3 15.98 c-0.16 1.18 -0.34 2.18 -0.44 3.2 c-0.08 0.62 -1.04 1.04 -1.46 0.98 c-0.4 -0.06 -0.82 -0.02 -1.18 -0.14 c-1.38 -0.4 -2.26 -1.3 -2.52 -2.74 c-0.18 -0.96 -0.34 -1.92 -0.5 -2.88 c-0.08 -0.44 0.1 -0.58 0.62 -0.48 c0.18 0.04 0.36 0.06 0.56 0.08 c0.4 0.04 0.8 0.44 0.82 0.86 c0.08 0.92 0.28 1.82 0.58 2.68 c0.02 0.06 0.06 0.1 0.1 0.16 c0.02 -0.06 0.06 -0.1 0.1 -0.14 c0.32 -0.4 0.22 -0.94 0.38 -1.38 c0 -0.06 -0.02 -0.12 0.02 -0.16 c0.32 -0.32 0.16 -0.7 0.1 -1.06 c-0.02 -0.12 -0.08 -0.24 0.08 -0.32 c0.04 -0.02 0.08 -0.16 0.06 -0.18 c-0.26 -0.2 0 -0.34 0.1 -0.44 c0.36 -0.32 0.82 -0.5 1.32 -0.4 c0.16 0.04 0.34 0.18 0.44 0.34 c0.24 0.36 0.5 0.74 0.68 1.14 c0.12 0.32 0.12 0.68 0.14 0.88 z M53.03999999999999 16.259999999999998 c-0.02 0.06 -0.02 0.1 -0.02 0.14 c0 0.02 0.02 0.02 0.02 0.04 c0.02 -0.02 0.04 -0.06 0.06 -0.08 c0 -0.02 -0.02 -0.04 -0.06 -0.1 z M58.215999999999994 18.2 c0.26 0.08 0.7 0.2 1.14 0.3 c0.26 0.06 0.54 0.08 0.82 0.12 c0.04 0.02 0.08 0.02 0.12 0 c0.18 -0.08 0.34 -0.16 0.52 -0.24 c-0.14 -0.1 -0.24 -0.24 -0.38 -0.32 c-0.72 -0.42 -1.28 -0.96 -1.6 -1.72 c-0.12 -0.28 -0.1 -0.62 -0.12 -0.94 c-0.02 -0.14 0.04 -0.28 0.04 -0.42 c-0.02 -0.72 0.5 -1.08 1.04 -1.42 c0.12 -0.08 0.42 -0.08 0.54 0.02 c0.62 0.4 1.2 0.84 1.78 1.26 c0.08 0.06 0.18 0.16 0.22 0.24 c0.08 0.22 0.26 0.44 0.02 0.68 c-0.2 0.2 -0.5 0.28 -0.76 0.16 c-0.12 -0.06 -0.24 -0.14 -0.36 -0.22 c-0.28 -0.14 -0.46 -0.06 -0.64 0.2 c-0.24 0.38 -0.24 0.54 0.04 0.74 c0.24 0.18 0.48 0.34 0.74 0.5 c0.66 0.4 1.16 0.96 1.52 1.6 c0.28 0.52 0.4 1.12 0.16 1.72 c-0.1 0.22 -0.44 0.34 -0.76 0.3 c-0.12 0 -0.26 0.06 -0.38 0.06 c-0.26 0.04 -0.52 0.12 -0.76 0.1 c-0.44 -0.02 -0.9 -0.02 -1.3 -0.16 c-0.5 -0.18 -1.06 -0.24 -1.5 -0.66 c-0.22 -0.2 -0.42 -0.44 -0.64 -0.66 c-0.18 -0.18 -0.3 -0.4 -0.18 -0.7 c0.02 -0.02 0.02 -0.06 0.02 -0.1 c0.06 -0.44 0.06 -0.44 0.66 -0.44 z  M80.52799999999999 14.280000000000001 c-0.1 0.48 -0.18 1.02 -0.34 1.52 c-0.2 0.66 -0.46 1.3 -0.7 1.94 c-0.18 0.52 -0.44 1 -0.52 1.56 c-0.02 0.4 -0.16 0.78 -0.3 1.18 c-0.02 0.1 -0.18 0.16 -0.24 0.26 c-0.1 0.16 -0.18 0.08 -0.3 0.08 c-0.26 -0.02 -0.48 -0.04 -0.74 -0.1 c-0.3 -0.06 -0.54 -0.34 -0.54 -0.64 c0.02 -0.24 -0.08 -0.52 -0.04 -0.76 c0.04 -0.46 0.16 -0.9 0.22 -1.36 c0.02 -0.08 0 -0.2 -0.04 -0.26 c-0.56 -0.76 -1.06 -1.56 -1.44 -2.42 c-0.08 -0.18 -0.18 -0.36 -0.22 -0.54 s0.04 -0.28 0.28 -0.26 c0.54 0.08 0.96 0.32 1.26 0.76 c0.2 0.26 0.42 0.52 0.62 0.78 c0.02 0.04 0.06 0.08 0.12 0.12 c0.04 -0.06 0.1 -0.1 0.12 -0.16 c0.26 -0.76 0.56 -1.54 0.82 -2.34 c0.1 -0.24 0.18 -0.24 0.42 -0.18 c0.12 0.04 0.3 -0.02 0.44 0.04 c0.22 0.1 0.46 0.16 0.72 0.22 c0.3 0.06 0.26 0.32 0.4 0.56 z M87.88399999999999 20.2 c-0.9 -0.06 -1.6 -0.42 -2.1 -1.1 c-0.42 -0.6 -0.62 -1.24 -0.48 -2.02 c0.1 -0.58 0.18 -1.18 0.46 -1.72 c0.2 -0.4 0.5 -0.72 0.9 -0.92 c0.06 -0.04 0.12 -0.1 0.12 -0.14 c-0.06 -0.34 0.2 -0.52 0.38 -0.72 c0.06 -0.06 0.2 -0.08 0.3 -0.06 c0.58 0.14 1.16 0.26 1.74 0.46 c0.24 0.08 0.48 0.28 0.66 0.48 c0.32 0.34 0.62 0.7 0.88 1.08 c0.72 1.02 0.56 2.22 -0.26 3.18 c-0.38 0.44 -0.76 0.86 -1.32 1.1 c-0.44 0.2 -0.88 0.3 -1.28 0.38 z M89.32399999999998 17.12 c-0.08 -0.5 -0.34 -1.12 -0.74 -1.68 c-0.02 -0.02 -0.08 -0.08 -0.12 -0.06 c-0.22 0.06 -0.46 0.1 -0.66 0.2 c-0.46 0.26 -0.7 0.7 -0.82 1.22 c-0.1 0.5 -0.2 1.04 -0.22 1.56 c-0.02 0.54 0.4 0.94 0.92 0.8 c0.48 -0.12 0.86 -0.46 1.18 -0.82 c0.24 -0.28 0.48 -0.62 0.46 -1.22 z M101.63999999999999 15.98 c-0.16 1.18 -0.34 2.18 -0.44 3.2 c-0.08 0.62 -1.04 1.04 -1.46 0.98 c-0.4 -0.06 -0.82 -0.02 -1.18 -0.14 c-1.38 -0.4 -2.26 -1.3 -2.52 -2.74 c-0.18 -0.96 -0.34 -1.92 -0.5 -2.88 c-0.08 -0.44 0.1 -0.58 0.62 -0.48 c0.18 0.04 0.36 0.06 0.56 0.08 c0.4 0.04 0.8 0.44 0.82 0.86 c0.08 0.92 0.28 1.82 0.58 2.68 c0.02 0.06 0.06 0.1 0.1 0.16 c0.02 -0.06 0.06 -0.1 0.1 -0.14 c0.32 -0.4 0.22 -0.94 0.38 -1.38 c0 -0.06 -0.02 -0.12 0.02 -0.16 c0.32 -0.32 0.16 -0.7 0.1 -1.06 c-0.02 -0.12 -0.08 -0.24 0.08 -0.32 c0.04 -0.02 0.08 -0.16 0.06 -0.18 c-0.26 -0.2 0 -0.34 0.1 -0.44 c0.36 -0.32 0.82 -0.5 1.32 -0.4 c0.16 0.04 0.34 0.18 0.44 0.34 c0.24 0.36 0.5 0.74 0.68 1.14 c0.12 0.32 0.12 0.68 0.14 0.88 z M101.37999999999998 16.259999999999998 c-0.02 0.06 -0.02 0.1 -0.02 0.14 c0 0.02 0.02 0.02 0.02 0.04 c0.02 -0.02 0.04 -0.06 0.06 -0.08 c0 -0.02 -0.02 -0.04 -0.06 -0.1 z M106.61599999999999 14.42 c0 -0.28 0.02 -0.28 0.26 -0.18 c0.22 0.08 0.44 0.16 0.66 0.22 c0.08 0.02 0.16 -0.02 0.24 -0.06 c0.66 -0.36 1.36 -0.6 2.14 -0.52 c0.5 0.04 0.96 0.22 1.32 0.56 c0.38 0.36 0.58 0.86 0.54 1.4 c0 0.24 -0.08 0.5 -0.32 0.68 c-0.28 0.22 -0.46 0.54 -0.7 0.8 c-0.06 0.06 -0.14 0.1 -0.2 0.14 c-0.22 0.12 -0.44 0.24 -0.64 0.38 c-0.04 0.02 -0.02 0.16 0.02 0.2 c0.66 0.8 1.34 1.58 2.02 2.38 c0.16 0.18 0.26 0.42 0.38 0.66 c0.02 0.02 0.02 0.1 0.02 0.12 c-0.1 0.02 -0.2 0.08 -0.3 0.08 c-0.66 0.02 -1.08 -0.4 -1.46 -0.86 c-0.38 -0.44 -0.76 -0.9 -1.12 -1.36 c-0.34 -0.42 -0.62 -0.88 -0.94 -1.32 c-0.02 -0.04 -0.08 -0.08 -0.12 -0.12 c-0.02 0.06 -0.04 0.14 -0.02 0.18 c0.1 0.6 0.18 1.2 0.16 1.82 c0 0.24 -0.2 0.42 -0.44 0.32 c-0.3 -0.14 -0.6 -0.28 -0.86 -0.5 c-0.12 -0.1 -0.2 -0.32 -0.22 -0.5 c-0.06 -0.58 -0.44 -4.16 -0.42 -4.52 z M110.05599999999998 14.6 c-0.14 0 -0.24 0 -0.34 0.02 c-0.44 0.12 -0.86 0.26 -1.28 0.4 c-0.16 0.06 -0.38 0.1 -0.42 0.2 c-0.04 0.14 0.06 0.34 0.08 0.5 c0 0 0 0.02 0.02 0.02 c0.02 0.16 0.1 0.2 0.24 0.12 c0.58 -0.26 1.16 -0.52 1.74 -0.8 c0.12 -0.06 0.18 -0.2 0.28 -0.32 c-0.12 -0.04 -0.22 -0.1 -0.32 -0.14 z  M124.24799999999998 18.2 c0.26 0.08 0.7 0.2 1.14 0.3 c0.26 0.06 0.54 0.08 0.82 0.12 c0.04 0.02 0.08 0.02 0.12 0 c0.18 -0.08 0.34 -0.16 0.52 -0.24 c-0.14 -0.1 -0.24 -0.24 -0.38 -0.32 c-0.72 -0.42 -1.28 -0.96 -1.6 -1.72 c-0.12 -0.28 -0.1 -0.62 -0.12 -0.94 c-0.02 -0.14 0.04 -0.28 0.04 -0.42 c-0.02 -0.72 0.5 -1.08 1.04 -1.42 c0.12 -0.08 0.42 -0.08 0.54 0.02 c0.62 0.4 1.2 0.84 1.78 1.26 c0.08 0.06 0.18 0.16 0.22 0.24 c0.08 0.22 0.26 0.44 0.02 0.68 c-0.2 0.2 -0.5 0.28 -0.76 0.16 c-0.12 -0.06 -0.24 -0.14 -0.36 -0.22 c-0.28 -0.14 -0.46 -0.06 -0.64 0.2 c-0.24 0.38 -0.24 0.54 0.04 0.74 c0.24 0.18 0.48 0.34 0.74 0.5 c0.66 0.4 1.16 0.96 1.52 1.6 c0.28 0.52 0.4 1.12 0.16 1.72 c-0.1 0.22 -0.44 0.34 -0.76 0.3 c-0.12 0 -0.26 0.06 -0.38 0.06 c-0.26 0.04 -0.52 0.12 -0.76 0.1 c-0.44 -0.02 -0.9 -0.02 -1.3 -0.16 c-0.5 -0.18 -1.06 -0.24 -1.5 -0.66 c-0.22 -0.2 -0.42 -0.44 -0.64 -0.66 c-0.18 -0.18 -0.3 -0.4 -0.18 -0.7 c0.02 -0.02 0.02 -0.06 0.02 -0.1 c0.06 -0.44 0.06 -0.44 0.66 -0.44 z M136.744 20.2 c-0.9 -0.06 -1.6 -0.42 -2.1 -1.1 c-0.42 -0.6 -0.62 -1.24 -0.48 -2.02 c0.1 -0.58 0.18 -1.18 0.46 -1.72 c0.2 -0.4 0.5 -0.72 0.9 -0.92 c0.06 -0.04 0.12 -0.1 0.12 -0.14 c-0.06 -0.34 0.2 -0.52 0.38 -0.72 c0.06 -0.06 0.2 -0.08 0.3 -0.06 c0.58 0.14 1.16 0.26 1.74 0.46 c0.24 0.08 0.48 0.28 0.66 0.48 c0.32 0.34 0.62 0.7 0.88 1.08 c0.72 1.02 0.56 2.22 -0.26 3.18 c-0.38 0.44 -0.76 0.86 -1.32 1.1 c-0.44 0.2 -0.88 0.3 -1.28 0.38 z M138.184 17.12 c-0.08 -0.5 -0.34 -1.12 -0.74 -1.68 c-0.02 -0.02 -0.08 -0.08 -0.12 -0.06 c-0.22 0.06 -0.46 0.1 -0.66 0.2 c-0.46 0.26 -0.7 0.7 -0.82 1.22 c-0.1 0.5 -0.2 1.04 -0.22 1.56 c-0.02 0.54 0.4 0.94 0.92 0.8 c0.48 -0.12 0.86 -0.46 1.18 -0.82 c0.24 -0.28 0.48 -0.62 0.46 -1.22 z M146.04 13.08 c0.38 -0.02 0.62 0.32 0.9 0.58 c0.18 0.16 0.1 0.36 0.08 0.52 c-0.04 0.82 -0.12 1.62 -0.16 2.42 c-0.02 0.64 0.04 1.3 0.06 1.94 c0 0.26 0.2 0.18 0.34 0.16 c0.26 -0.02 0.5 -0.12 0.74 -0.12 c0.4 0 0.8 0.04 1.2 0.08 c0.22 0.02 0.34 0.1 0.28 0.38 c-0.06 0.2 0 0.46 -0.28 0.58 c-0.2 0.08 -0.4 0.22 -0.6 0.28 c-0.3 0.08 -0.6 0.16 -0.9 0.14 c-0.66 -0.04 -1.3 -0.2 -1.8 -0.66 c-0.48 -0.44 -0.6 -1.08 -0.62 -1.7 c-0.02 -0.66 -0.02 -1.32 0 -1.98 c0.02 -0.5 0.06 -1.02 0.1 -1.52 c0.02 -0.28 0.06 -0.58 0.06 -0.86 s0.04 -0.36 0.38 -0.28 c0.06 0.02 0.1 0.02 0.22 0.04 z M155.836 14.16 c0.58 0.26 1.12 0.04 1.68 -0.08 c0.58 -0.1 1.14 -0.1 1.72 0 c0.1 0.02 0.22 0.06 0.28 0.14 c0.08 0.06 0.18 0.2 0.16 0.28 s-0.16 0.16 -0.26 0.2 c-0.52 0.14 -1.06 0.26 -1.6 0.4 c-0.16 0.04 -0.34 0.06 -0.52 0.1 c-0.12 0.04 -0.3 0.1 -0.32 0.18 c-0.1 0.36 -0.2 0.74 -0.22 1.12 c-0.02 0.2 0.18 0.14 0.32 0.12 c0.48 -0.1 0.94 -0.22 1.4 -0.26 c0.28 -0.02 0.58 0.06 0.86 0.14 c0.1 0.02 0.16 0.16 0.24 0.26 c-0.12 0.1 -0.28 0.32 -0.36 0.3 c-0.4 -0.14 -0.64 0.16 -0.88 0.34 c-0.32 0.26 -0.66 0.38 -1.04 0.44 c-0.4 0.08 -0.44 0.16 -0.32 0.52 c0.18 0.64 0.18 0.62 0.84 0.58 c0.72 -0.04 1.44 -0.06 2.16 -0.08 c0.14 0 0.26 0.12 0.38 0.18 c-0.04 0.08 -0.08 0.18 -0.14 0.26 c-0.74 1 -1.82 0.86 -2.86 0.82 c-0.16 0 -0.32 -0.04 -0.48 -0.02 c-0.44 0.08 -0.8 -0.12 -1.16 -0.32 c-0.34 -0.18 -0.36 -0.54 -0.42 -0.86 c-0.1 -0.54 -0.16 -1.1 -0.22 -1.66 c-0.08 -0.98 -0.2 -1.98 0.12 -2.94 c0.06 -0.22 0.2 -0.22 0.36 -0.22 c0.1 0.02 0.2 0.04 0.28 0.06 z M164.71200000000002 18.2 c0.26 0.08 0.7 0.2 1.14 0.3 c0.26 0.06 0.54 0.08 0.82 0.12 c0.04 0.02 0.08 0.02 0.12 0 c0.18 -0.08 0.34 -0.16 0.52 -0.24 c-0.14 -0.1 -0.24 -0.24 -0.38 -0.32 c-0.72 -0.42 -1.28 -0.96 -1.6 -1.72 c-0.12 -0.28 -0.1 -0.62 -0.12 -0.94 c-0.02 -0.14 0.04 -0.28 0.04 -0.42 c-0.02 -0.72 0.5 -1.08 1.04 -1.42 c0.12 -0.08 0.42 -0.08 0.54 0.02 c0.62 0.4 1.2 0.84 1.78 1.26 c0.08 0.06 0.18 0.16 0.22 0.24 c0.08 0.22 0.26 0.44 0.02 0.68 c-0.2 0.2 -0.5 0.28 -0.76 0.16 c-0.12 -0.06 -0.24 -0.14 -0.36 -0.22 c-0.28 -0.14 -0.46 -0.06 -0.64 0.2 c-0.24 0.38 -0.24 0.54 0.04 0.74 c0.24 0.18 0.48 0.34 0.74 0.5 c0.66 0.4 1.16 0.96 1.52 1.6 c0.28 0.52 0.4 1.12 0.16 1.72 c-0.1 0.22 -0.44 0.34 -0.76 0.3 c-0.12 0 -0.26 0.06 -0.38 0.06 c-0.26 0.04 -0.52 0.12 -0.76 0.1 c-0.44 -0.02 -0.9 -0.02 -1.3 -0.16 c-0.5 -0.18 -1.06 -0.24 -1.5 -0.66 c-0.22 -0.2 -0.42 -0.44 -0.64 -0.66 c-0.18 -0.18 -0.3 -0.4 -0.18 -0.7 c0.02 -0.02 0.02 -0.06 0.02 -0.1 c0.06 -0.44 0.06 -0.44 0.66 -0.44 z"></path>
  </g>
</svg>
